<svg width="337" height="513" viewBox="0 0 337 513" fill="none" xmlns="http://www.w3.org/2000/svg">
<path d="M298 378.5L336.5 465.5V510.5H218.5L193 452.5H183.5L174.5 510.5H140.5L144 489.5V441L135.5 432.5L129 424L124 432.5L122.5 458L124 484V512H87.5V504L85.5 497.5L84 489.5L82 482.5L80.5 478.5L77 459V448L74.5 436.5L75.5 424L77 414.5L74 407.5L62 364.5L56.5 343.5L51.5 331L49.5 321.5V313.5L48.5 304.5L50 300.5L49.5 296V288L56 266L57.5 262V257.5V249L62 235.5L69.5 215L74 196.5L71 187L69.5 175L67 163L64.5 149.5V132L59 125H53.5L51 122.5H42.5V124.5L39.5 127.5L29.5 128L26.5 124.5L16 116L10.5 114L10 113.5L8.5 111.5L8 109.5V104.5V99V97L5.5 94L3.5 92.5V86.5H2.5L1 84V75.5L2.5 72L6.5 68L11.5 67L18.5 62.5L25.5 55.5V49V31L41 20.5L55 10.5L63.5 6H78L87.5 2L98.5 3.5L104.5 1L125.5 6H141.5L193 46L198.5 59L193 69.5L180.998 84.3993C178.653 87.6185 176.254 90.9904 174.095 94.1075L168.5 102.5L155.5 112L167 152L192 179.5V185.5L198.5 193.5L212.5 215L218.5 239L270.5 301L298 378.5Z" fill="#F1AE00"/>
<path d="M168.5 102.5L155.5 112L167 152L192 179.5V185.5L198.5 193.5L212.5 215L218.5 239L270.5 301L298 378.5L336.5 465.5V510.5H218.5L193 452.5H183.5L174.5 510.5H140.5L144 489.5V441L135.5 432.5L129 424L124 432.5L122.5 458L124 484V512H87.5V504L85.5 497.5L84 489.5L82 482.5L80.5 478.5L77 459V448L74.5 436.5L75.5 424L77 414.5L74 407.5L62 364.5L56.5 343.5L51.5 331L49.5 321.5V313.5L48.5 304.5L50 300.5L49.5 296V288L56 266L57.5 262V257.5V249L62 235.5L69.5 215L74 196.5L71 187L69.5 175L67 163L64.5 149.5V132L59 125H53.5L51 122.5H42.5V124.5L39.5 127.5L29.5 128L26.5 124.5L16 116L10.5 114M168.5 102.5L178.5 87.5L193 69.5M168.5 102.5C174.667 92.6417 192.2 68.67 193 69.5M193 69.5L198.5 59L193 46L141.5 6H125.5L104.5 1L98.5 3.5L87.5 2L78 6H63.5L55 10.5L41 20.5L25.5 31V49V55.5L18.5 62.5L11.5 67L6.5 68L2.5 72L1 75.5V84L2.5 86.5H3.5V92.5L5.5 94L8 97V99V104.5V109.5L8.5 111.5L10 113.5L10.5 114M11.5 114H10.5" stroke="black"/>
<path d="M150.5 191C153.928 180.99 151.174 165.791 150.535 159.603L150.5 159.5L150.526 159.517L163.626 167.736C164.67 162.215 167.466 163.153 173.712 174.064L163.626 167.736C162.639 172.962 163.222 183.975 163.938 197.796C180.897 206.305 173.864 201.061 178.5 181L178.24 185C193.316 189.406 196.809 194.993 185.221 209.341C186.27 212.922 187.278 216.31 188.249 219.5H202C198.366 224.305 195.16 228.663 192.407 232.583C196.979 246.183 200.66 254.013 203.99 255.268C205.117 254.872 206.287 254.449 207.5 254C206.359 255.314 205.198 255.724 203.99 255.268C175.801 265.175 174.287 258.382 192.407 232.583C191.098 228.688 189.716 224.321 188.249 219.5H176C179.747 215.689 182.81 212.325 185.221 209.341C183.076 202.019 180.76 193.89 178.24 185L178.5 181C173.864 201.061 180.897 206.305 163.938 197.796C163.958 198.195 163.979 198.596 164 199L163.516 197.584C160.167 195.899 155.914 193.702 150.5 191Z" fill="#D13FC3"/>
<path d="M150.5 157C149.7 159 154.667 178.833 150.5 191C184.198 207.815 172.932 205.097 178.5 181L178.24 185M178.24 185C196.452 190.322 197.761 197.369 176 219.5H202C173.486 257.198 171.345 267.395 207.5 254C200.501 262.06 192.723 236.105 178.24 185ZM176 175.5L173.712 174.064M173.712 174.064L150.5 159.5L164 199C162.494 169.844 161.385 152.528 173.712 174.064Z" stroke="black" stroke-opacity="0.84"/>
<path d="M57.5 37.5L50 47V29L56 23L64.5 10.5H67L69.5 14L71 13L75 10.5C75.5 9.66667 76.9 8 78.5 8C80.1 8 82.8333 9.66667 84 10.5L87 13L89.5 16.5C91.3333 17 95.3 18.2 96.5 19C97.7 19.8 102.333 23.6667 104.5 25.5C103.667 26.5 101.8 28.3 101 27.5C100 26.5 93.5 21.5 92.5 21C91.7 20.6 88.5 18.5 87 17.5C87.5 16.3333 87.4 14 83 14C76.6 14 71.3333 17.3333 69.5 19C68.3333 19 65.7 19.4 64.5 21C63 23 62 23.5 60.5 25.5C59 27.5 58.5 30.5 58.5 31.5C58.5 32.3 57.8333 35.8333 57.5 37.5Z" fill="#D9D9D9"/>
<path d="M33.5 56.5L37.5 61.5L30 68.5H36.5L42 71.5C42.5 71 43.5 69.7 43.5 68.5C43.5 67 45 66 45.5 63.5C45.9 61.5 44.3333 59.6667 43.5 59C42 58.1667 38.7 56.5 37.5 56.5H33.5Z" fill="#D9D9D9"/>
<path d="M100 85.5C99.8333 89.1667 99.6 96.6 100 97L108 82H104.5L100 85.5Z" fill="#D9D9D9"/>
<path d="M98 4.5L108 14C109.167 13.1667 111.6 11.3 112 10.5C112.4 9.7 110.5 8.5 109.5 8C108.333 6.83333 105.9 4.5 105.5 4.5C105.1 4.5 101.667 3.16667 100 2.5L98 4.5Z" fill="#D9D9D9"/>
<path d="M57.5 37.5L50 47V29L56 23M57.5 37.5L56 23M57.5 37.5C57.8333 35.8333 58.5 32.3 58.5 31.5C58.5 30.5 59 27.5 60.5 25.5C62 23.5 63 23 64.5 21C65.7 19.4 68.3333 19 69.5 19C71.3333 17.3333 76.6 14 83 14C87.4 14 87.5 16.3333 87 17.5C88.5 18.5 91.7 20.6 92.5 21C93.5 21.5 100 26.5 101 27.5C101.8 28.3 103.667 26.5 104.5 25.5C102.333 23.6667 97.7 19.8 96.5 19C95.3 18.2 91.3333 17 89.5 16.5L87 13L84 10.5C82.8333 9.66667 80.1 8 78.5 8C76.9 8 75.5 9.66667 75 10.5L71 13L69.5 14L67 10.5H64.5L56 23M37.5 61.5L33.5 56.5C34.3333 56.5 36.3 56.5 37.5 56.5C38.7 56.5 42 58.1667 43.5 59C44.3333 59.6667 45.9 61.5 45.5 63.5C45 66 43.5 67 43.5 68.5C43.5 69.7 42.5 71 42 71.5L36.5 68.5H30L37.5 61.5ZM100 97C99.6 96.6 99.8333 89.1667 100 85.5L104.5 82H108L100 97ZM108 14L98 4.5L100 2.5C101.667 3.16667 105.1 4.5 105.5 4.5C105.9 4.5 108.333 6.83333 109.5 8C110.5 8.5 112.4 9.7 112 10.5C111.6 11.3 109.167 13.1667 108 14Z" stroke="black" stroke-opacity="0.84"/>
<path d="M39 69H31.5L34 84.5L39.5 77.5L40.5 86L44.5 80.5V76V72L39 69Z" fill="#00FFC2"/>
<path d="M62 26.5C62.9682 36.4775 62.7971 40.9056 62 48C69.8754 46.8731 73.4958 45.5847 79 42.5C83.6344 47.0982 86.4276 47.7455 91.5 48L98.5 42.5H102.5L106 40.5L102.5 35.5L95 26.5L85.5 20.5H70.5L62 26.5Z" fill="#00FFC2"/>
<path d="M39 69H31.5L34 84.5L39.5 77.5L40.5 86L44.5 80.5V76V72L39 69Z" stroke="black"/>
<path d="M62 26.5C62.9682 36.4775 62.7971 40.9056 62 48C69.8754 46.8731 73.4958 45.5847 79 42.5C83.6344 47.0982 86.4276 47.7455 91.5 48L98.5 42.5H102.5L106 40.5L102.5 35.5L95 26.5L85.5 20.5H70.5L62 26.5Z" stroke="black"/>
<path d="M8.5 88.5L4.5 90H3.5L4 86H2.5L1.5 84V80H4L6.5 81.5L8 84.5L8.5 88.5Z" fill="#E134BB"/>
<path d="M91.5 42L96 40V34L91.5 30V27L82.5 24.5L79 27.5C78.5 28.5 77.5 32.2 77.5 33C77.5 33.8 79 35.8333 78.5 37.5L81 41L87.5 43.5L91.5 42Z" fill="#E134BB"/>
<path d="M35.5 46L32.5 49H29L26.5 43.5L27 38.5C27.6667 37.6667 29.3 36 30.5 36C32 36 35.5 34 35.5 35C35.5 36 35.5 40 37 42C38.2 43.6 36.5 45.3333 35.5 46Z" fill="#E134BB"/>
<path d="M82 80L74 86L71.5 78L67 60V49H76.5L85 55.5L96 53L103.5 46V53L96 67.5L89.5 63.5L85 55.5L76.5 49V55.5V64.5L82 80Z" fill="#E134BB"/>
<path d="M16 96.5L21 105.5L13 112.5L16 96.5Z" fill="#E134BB"/>
<path d="M26.5 87H21L19.5 86H17.5L16 83L16.5 79.5L17.5 77.5C18.5 77.3333 20.6 77 21 77C21.4 77 23.8333 77.6667 25 78C25.1667 78.1667 25.6 78.7 26 79.5C26.5 80.5 27 80.5 27.5 81C28 81.5 27.5 81.5 28 82C28.5 82.5 29 82.5 29 83C29 83.5 30 83 29 84C28 85 27 85.5 27 86C27 86.4 27 86.8333 27 87M76.5 49V55.5V64.5L82 80L74 86L71.5 78L67 60V49H76.5ZM76.5 49L85 55.5M85 55.5L89.5 63.5L96 67.5L103.5 53V46L96 53L85 55.5ZM56 112.5L65.5 119.5L78 121.5L84 117V111.5L79.5 110C78.8333 110.5 77.3 111.5 76.5 111.5C75.7 111.5 69.8333 110.5 67 110H56H50.5H45.5L35.5 105.5H27H21M21 105.5L16 96.5L13 112.5M21 105.5L13 112.5M13 112.5V115.606M4.5 90L8.5 88.5L8 84.5L6.5 81.5L4 80H1.5V84L2.5 86H4L3.5 90H4.5ZM96 40L91.5 42L87.5 43.5L81 41L78.5 37.5C79 35.8333 77.5 33.8 77.5 33C77.5 32.2 78.5 28.5 79 27.5L82.5 24.5L91.5 27V30L96 34V40ZM32.5 49L35.5 46C36.5 45.3333 38.2 43.6 37 42C35.5 40 35.5 36 35.5 35C35.5 34 32 36 30.5 36C29.3 36 27.6667 37.6667 27 38.5L26.5 43.5L29 49H32.5Z" stroke="black"/>
<path d="M27.5 86V87H27C27.1666 87 27.4 87.1 27 87.5C26.5 88 27 87.5 26 87.5H25.7475H25H23H21C20 87.5 20.5 87 20 87C19.6 87 18.8333 86.6667 18.5 86.5C18.1667 86.5 17.4 86.4 17 86C16.5 85.5 17 85.5 16.5 85.5C16.1 85.5 16 84.5 16 84C15.8333 83.6667 15.6 82.9 16 82.5C16.4 82.1 16.5 80.6667 16.5 80L17 78.5L17.5 77.5L20 77L24.5 77.5L30 83.5L27.5 86Z" fill="#DB20A7"/>
<path d="M27 87H27.5V86L30 83.5L24.5 77.5L20 77L17.5 77.5L17 78.5L16.5 80C16.5 80.6667 16.4 82.1 16 82.5C15.6 82.9 15.8333 83.6667 16 84C16 84.5 16.1 85.5 16.5 85.5C17 85.5 16.5 85.5 17 86C17.4 86.4 18.1667 86.5 18.5 86.5C18.8333 86.6667 19.6 87 20 87C20.5 87 20 87.5 21 87.5C22 87.5 22.5 87.5 23 87.5C23.5 87.5 24.5 87.5 25 87.5C25.4511 87.5 25.0882 87.5 25.7475 87.5M27 87C27.1666 87 27.4 87.1 27 87.5C26.5 88 27 87.5 26 87.5C25.9023 87.5 25.8189 87.5 25.7475 87.5M27 87H26.5L25.7475 87.5" stroke="black"/>
<path d="M123.5 458L125.5 429L127 425L130 424L133 430L146 440V458V489.5L142.5 511H176.5L184.5 452.5H193.5L218 511H336.5V464.5" stroke="black"/>
<path d="M157 292.5L159 275.5L165.5 262L170 279.5C180.167 296.333 193.95 326.6 167.75 313L165.5 330L159 310.5L157 292.5Z" fill="#3204B5"/>
<path d="M170 279.5L165.5 262L159 275.5L157 292.5L159 310.5L165.5 330L167.75 313M170 279.5V296L167.75 313M170 279.5C180.167 296.333 193.95 326.6 167.75 313M154.5 112.5L146.5 121.5H133.5L122.5 116.5L116 108.5L115 91L114 80.5L112 74.5L117.5 67L121.5 57.5L129 47.5L130.5 33.5L130 25L127 20.5L125 15L122 10.5L116 6.5L112 10.5L125 33.5L122.5 47.5L97.5 106L84 117M56 112.5L52 110" stroke="black"/>
<path d="M112.5 323L136 374.5L108 342.5L112.5 323Z" fill="#ECD400"/>
<path d="M93.5 374.5L129.5 425L125 434.5L90.5 375.25L87.5 363.5V342.5L93.5 374.5Z" fill="#ECD400"/>
<path d="M98 263.5L87.5 278.5L74.5 263.5V245.5L80.5 216.5L98 250.5V263.5Z" fill="#ECD400"/>
<path d="M243 447L254 472L243 483.5L192.5 452.5L217 463L224 452.5L243 447Z" fill="#ECD400"/>
<path d="M93.5 387L90.5 375.25M90.5 375.25L87.5 363.5V342.5L93.5 374.5L129.5 425L125 434.5L90.5 375.25ZM136 374.5L112.5 323L108 342.5L136 374.5ZM87.5 278.5L98 263.5V250.5L80.5 216.5L74.5 245.5V263.5L87.5 278.5ZM254 472L243 447L224 452.5L217 463L192.5 452.5L243 483.5L254 472Z" stroke="black"/>
<path d="M103 160.5V177.5L110 171.5L103 160.5Z" fill="#5D00F4"/>
<path d="M110 143.5L103 153.5L115 166V153.5L110 143.5Z" fill="#5D00F4"/>
<path d="M115 280L110 261L120 241.5L123.047 249L126.5 257.5L125 271L115 280Z" fill="#5D00F4"/>
<path d="M125 271L126.5 257.5L123.047 249M125 271L115 280L110 261L120 241.5L123.047 249M125 271C123.698 264.167 121.484 250.2 123.047 249M103 177.5V160.5L110 171.5L103 177.5ZM103 153.5L110 143.5L115 153.5V166L103 153.5Z" stroke="#FF0000"/>
<path d="M97 461V502H105V485L100.5 473.5V456V444.5L97 432.5L93.5 448.5L97 461Z" fill="#E00000" stroke="black"/>
<path d="M8.5 97H11.5L20 96L25.5 93L28 88.5L33 85V77.5L34.5 75.5V72.5L33.5 69.5L28 67.5C28 67.5 20 66.1818 19.5 66C19 65.8182 11.5 67.5 11.5 67.5" stroke="black"/>
<path d="M73.5 116L68 114L66 112L64 110H65.5L69 112.5H72C73.3333 113 76.2 114 77 114H81C81.4 114 81.8333 115.333 82 116L80.5 116.5L79 116H76H73.5Z" fill="#06967C" stroke="black"/>
<path d="M69.5 141.5L74 144.5L73 139.5C73.3333 139 74.2 137.9 75 137.5C75.8 137.1 75.6667 135.667 75.5 135C75.3333 134 75.1 131.8 75.5 131C75.9 130.2 76.3333 128.667 76.5 128C75.5 127.167 73.4 125.4 73 125C72.6 124.6 70.5 123.5 69.5 123L66.5 121.5L62.5 123L64 126L66.5 128L68.5 131L71 135L69.5 138V141.5Z" fill="#FF95D5"/>
<path d="M89.5 136.5L94.5 141V136.5C93.6667 135 92.2 132 93 132C94 132 89.5 131 88 129L85 125L81.5 121.5L80.5 123V126C81.5 127.667 83.8 131.2 85 132C86.2 132.8 86.5 134 86.5 134.5L89.5 136.5Z" fill="#FF95D5"/>
<path d="M185.5 451V439L195 417L190 407.5L192.5 391L202.5 381L206 372L207 357.5L211 348L212 328L211 312.5L212 298L216 288.5L214.5 277L211 269V258V250L216 229.5M74 144.5L69.5 141.5V138L71 135L68.5 131L66.5 128L64 126L62.5 123L66.5 121.5L69.5 123C70.5 123.5 72.6 124.6 73 125C73.4 125.4 75.5 127.167 76.5 128C76.3333 128.667 75.9 130.2 75.5 131C75.1 131.8 75.3333 134 75.5 135C75.6667 135.667 75.8 137.1 75 137.5C74.2 137.9 73.3333 139 73 139.5L74 144.5ZM94.5 141L89.5 136.5L86.5 134.5C86.5 134 86.2 132.8 85 132C83.8 131.2 81.5 127.667 80.5 126V123L81.5 121.5L85 125C85.5 125.667 86.8 127.4 88 129C89.5 131 94 132 93 132C92.2 132 93.6667 135 94.5 136.5V141Z" stroke="black"/>
<path d="M129.5 159L121.5 136.5H120L125 155V163L129.5 170V190L125 205.5L121.5 208.5L114 217.5V226H120V217.5L125 215.5L129.5 205.5L133.5 174.5L129.5 159Z" fill="#D9D9D9"/>
<path d="M125 148.5L121.5 136.5M121.5 136.5L129.5 159L133.5 174.5L129.5 205.5L125 215.5L120 217.5V226H114V217.5L121.5 208.5L125 205.5L129.5 190V170L125 163V155L120 136.5H121.5Z" stroke="black"/>
<ellipse cx="86" cy="34" rx="5.5" ry="5" fill="black"/>
<circle cx="83" cy="33.5" r="1.5" fill="white"/>
<ellipse cx="31.5" cy="42.5" rx="3" ry="3.5" fill="black"/>
<circle cx="30.5" cy="42" r="1" fill="white"/>
<path d="M130.5 88.7954L166 37.6429L164 31.5L162.5 21.5L175.5 32.5L174.5 33.5L171.5 34.5L169 35.5L166 37.6429L164 43V49.5L162.5 55V63L160 68.5L157.5 63L155 67.5C153.5 69.1667 150.2 72.6 149 73C147.5 73.5 149 75.5 149 76.5V79.5C148.167 81 146.3 84.2 145.5 85C144.5 86 144 90 144 91C144 92 139.509 96 139 97.5C138.593 98.7 138.83 102 139 103.5L136.5 106.5H134.5C133.833 105 132.4 101.8 132 101C131.6 100.2 130.833 99.3333 130.5 99V93V88.7954L125.5 96V93L123 88.5L125.5 84V81.5L127 80.5C127.667 80.6667 129 81.3 129 82.5C129 84 130.5 85.5 130.5 87V88.7954Z" fill="#444463"/>
<path d="M166 37.6429L125.5 96V93L123 88.5L125.5 84V81.5L127 80.5C127.667 80.6667 129 81.3 129 82.5C129 84 130.5 85.5 130.5 87C130.5 88.2 130.5 91.5 130.5 93V99C130.833 99.3333 131.6 100.2 132 101C132.4 101.8 133.833 105 134.5 106.5H136.5L139 103.5C138.83 102 138.593 98.7 139 97.5C139.509 96 144 92 144 91C144 90 144.5 86 145.5 85C146.3 84.2 148.167 81 149 79.5C149 78.8333 149 77.3 149 76.5C149 75.5 147.5 73.5 149 73C150.2 72.6 153.5 69.1667 155 67.5L157.5 63L160 68.5L162.5 63V55L164 49.5V43L166 37.6429ZM166 37.6429L169 35.5L171.5 34.5L174.5 33.5L175.5 32.5L162.5 21.5L164 31.5L166 37.6429Z" stroke="black" stroke-opacity="0.84"/>
<path d="M134 54.5L135.5 49C136.167 47.3333 137.6 43.9 138 43.5C138.4 43.1 138.167 35.6667 138 32L139.5 27V24L135.5 16L133 14L138 13L141 16L143 18.5V27V35.5L141.5 41.5L141 47.5L137 54.5L133 55.6429L134 54.5Z" fill="#D9D9D9"/>
<path d="M125.5 80L123.5 66.5L133 55.6429M133 55.6429L134 54.5L135.5 49C136.167 47.3333 137.6 43.9 138 43.5C138.4 43.1 138.167 35.6667 138 32L139.5 27V24L135.5 16L133 14L138 13L141 16L143 18.5V27M133 55.6429L137 54.5L141 47.5L141.5 41.5M141.5 41.5L143 35.5V27M141.5 41.5L143 27" stroke="black" stroke-opacity="0.84"/>
<path d="M58.5 98.5L54.5 101C53.6667 100.667 52 99.7 52 98.5C52 97.3 49.6667 98.6667 48.5 99.5C47.6667 99.1667 46 98.3 46 97.5C46 96.5 43 95.5 41.5 94.5C40.3 93.7 38 93.5 37 93.5L40.5 95.5C40.8333 96.1667 41.5 97.7 41.5 98.5C41.5 99.5 44 101 44.5 101.5C44.9 101.9 42.6667 103 41.5 103.5L37 101.5C36 100.833 33.8 99.3 33 98.5C32.2 97.7 27.3333 98.1667 25 98.5C26 98.1667 28.2 97.5 29 97.5C30 97.5 31 94.5 31 93.5C31 92.5 35 91 35.5 88.5C35.9 86.5 37 90 37.5 92L43 88.5C44.3333 87.5 47.1 85.4 47.5 85C47.9 84.6 50.6667 87.8333 52 89.5L46 91V95.5L50.5 96.5L52 93.5C53.5 93.5 56.7 93.4 57.5 93C58.3 92.6 60.1667 95.1667 61 96.5L58.5 98.5Z" fill="url(#paint0_radial_10_146)"/>
<path d="M29 119.5L52 110L44.5 110.5C42.6667 110.333 38.8 110.1 38 110.5C37.2 110.9 35.3333 112 34.5 112.5C32.8333 112.333 29.4 111.9 29 111.5C28.5 111 23.5 110 22.5 110C21.5 110 19 112 19 113.5C19 115 22 114.5 22.5 114.5C23 114.5 25 116.5 25.5 117.5C25.9 118.3 28 119.167 29 119.5Z" fill="url(#paint1_radial_10_146)"/>
<path d="M58.5 98.5L54.5 101C53.6667 100.667 52 99.7 52 98.5C52 97.3 49.6667 98.6667 48.5 99.5C47.6667 99.1667 46 98.3 46 97.5C46 96.5 43 95.5 41.5 94.5C40.3 93.7 38 93.5 37 93.5L40.5 95.5C40.8333 96.1667 41.5 97.7 41.5 98.5C41.5 99.5 44 101 44.5 101.5C44.9 101.9 42.6667 103 41.5 103.5L37 101.5C36 100.833 33.8 99.3 33 98.5C32.2 97.7 27.3333 98.1667 25 98.5C26 98.1667 28.2 97.5 29 97.5C30 97.5 31 94.5 31 93.5C31 92.5 35 91 35.5 88.5C35.9 86.5 37 90 37.5 92L43 88.5C44.3333 87.5 47.1 85.4 47.5 85C47.9 84.6 50.6667 87.8333 52 89.5L46 91V95.5L50.5 96.5L52 93.5C53.5 93.5 56.7 93.4 57.5 93C58.3 92.6 60.1667 95.1667 61 96.5L58.5 98.5Z" stroke="black" stroke-opacity="0.84"/>
<path d="M29 119.5L52 110L44.5 110.5C42.6667 110.333 38.8 110.1 38 110.5C37.2 110.9 35.3333 112 34.5 112.5C32.8333 112.333 29.4 111.9 29 111.5C28.5 111 23.5 110 22.5 110C21.5 110 19 112 19 113.5C19 115 22 114.5 22.5 114.5C23 114.5 25 116.5 25.5 117.5C25.9 118.3 28 119.167 29 119.5Z" stroke="black" stroke-opacity="0.84"/>
<path d="M112.5 125L109.5 139V143.5C111.333 142 115.3 138.7 116.5 137.5C118 136 119.5 135 121 133.5C122.2 132.3 121.5 130 121 129V121.5L119.5 114.5L117.5 120L112.5 125Z" fill="url(#paint2_linear_10_146)"/>
<path d="M76.5 167.5L82 182L71.5 165C70.3333 161.667 68 154.4 68 152V143.5L76.5 155V167.5Z" fill="url(#paint3_linear_10_146)"/>
<path d="M173 340C172.2 342.4 171 346.333 170.5 348C169.61 350.161 167.925 354.378 166.821 357.5L166 312.5L173 318V328.5C173 332 174 337 173 340Z" fill="url(#paint4_linear_10_146)"/>
<path d="M158 401L160.5 388.5L163 383L158 374.5C158 372.333 158.5 367.6 160.5 366C163 364 165 363.5 166 360C166.19 359.336 166.477 358.471 166.821 357.5M166.821 357.5C167.925 354.378 169.61 350.161 170.5 348C171 346.333 172.2 342.4 173 340C174 337 173 332 173 328.5C173 325.7 173 320.333 173 318L166 312.5L166.821 357.5ZM109.5 139L112.5 125L117.5 120L119.5 114.5L121 121.5V129C121.5 130 122.2 132.3 121 133.5C119.5 135 118 136 116.5 137.5C115.3 138.7 111.333 142 109.5 143.5V139ZM82 182L76.5 167.5V155L68 143.5C68 145.333 68 149.6 68 152C68 154.4 70.3333 161.667 71.5 165L82 182Z" stroke="#020071" stroke-opacity="0.84"/>
<path d="M10.5 129.5L17 134.5L23 131L30.5 126.5L10.5 113.5V117V129.5Z" fill="#F1AE00"/>
<path d="M29 127.5L23 131M23 131L17 134.5L10.5 129.5V117V113.5L30.5 126.5L23 131Z" stroke="black" stroke-opacity="0.84"/>
<path d="M52.5 295.5L60 320V291L52.5 284.5V295.5Z" fill="#05FB00"/>
<path d="M74 284.5L82.5 291L86 277.5L74 264.5V284.5Z" fill="#05FB00"/>
<path d="M100.5 214.5L99 223.5L95.5 217.5L92.5 219.5L89.5 214.5L92.5 205.5L95.5 207L99 202.5V193L100.5 185.5L104 190V205.5L100.5 207V214.5Z" fill="#05FB00"/>
<path d="M100.5 103.5L104 108L110 112L113 98L108.5 88L100.5 98C101.667 98.5 104.5 99.6 106.5 100C108.5 100.4 107.333 101.5 106.5 102H104L100.5 103.5Z" fill="#05FB00"/>
<path d="M52.5 295.5L60 320V291L52.5 284.5V295.5Z" stroke="black" stroke-opacity="0.84"/>
<path d="M74 284.5L82.5 291L86 277.5L74 264.5V284.5Z" stroke="black" stroke-opacity="0.84"/>
<path d="M100.5 214.5L99 223.5L95.5 217.5L92.5 219.5L89.5 214.5L92.5 205.5L95.5 207L99 202.5V193L100.5 185.5L104 190V205.5L100.5 207V214.5Z" stroke="black" stroke-opacity="0.84"/>
<path d="M100.5 103.5L104 108L110 112L113 98L108.5 88L100.5 98C101.667 98.5 104.5 99.6 106.5 100C108.5 100.4 107.333 101.5 106.5 102H104L100.5 103.5Z" stroke="black" stroke-opacity="0.84"/>
<defs>
<radialGradient id="paint0_radial_10_146" cx="0" cy="0" r="1" gradientUnits="userSpaceOnUse" gradientTransform="translate(40 102.233) rotate(90) scale(17.267 21)">
<stop offset="0.661675" stop-color="#6139FF"/>
<stop offset="1" stop-opacity="0"/>
</radialGradient>
<radialGradient id="paint1_radial_10_146" cx="0" cy="0" r="1" gradientUnits="userSpaceOnUse" gradientTransform="translate(40 102.233) rotate(90) scale(17.267 21)">
<stop offset="0.661675" stop-color="#6139FF"/>
<stop offset="1" stop-opacity="0"/>
</radialGradient>
<linearGradient id="paint2_linear_10_146" x1="120.722" y1="114.5" x2="120.722" y2="401" gradientUnits="userSpaceOnUse">
<stop stop-color="#E8D426"/>
<stop offset="0.119792" stop-color="#FF15E8" stop-opacity="0"/>
</linearGradient>
<linearGradient id="paint3_linear_10_146" x1="120.722" y1="114.5" x2="120.722" y2="401" gradientUnits="userSpaceOnUse">
<stop stop-color="#E8D426"/>
<stop offset="0.119792" stop-color="#FF15E8" stop-opacity="0"/>
</linearGradient>
<linearGradient id="paint4_linear_10_146" x1="120.722" y1="114.5" x2="120.722" y2="401" gradientUnits="userSpaceOnUse">
<stop stop-color="#E8D426"/>
<stop offset="0.119792" stop-color="#FF15E8" stop-opacity="0"/>
</linearGradient>
</defs>
</svg>
