<svg width="1119" height="588" viewBox="0 0 1119 588" fill="none" xmlns="http://www.w3.org/2000/svg">
<path d="M49.4284 389.474L20 579H1078.83L1098.26 507.075C1123.68 383.174 1116.31 319.999 1109.44 303.899C1087.78 174.538 903.146 157.525 818 139.5C751.61 79.8597 671.348 11.4721 635.053 10.4221C544.649 -19.8181 436.902 49.6223 394.329 88.1225C379.615 117.173 326.055 181.258 229.53 205.198C133.005 229.138 69.2435 338.024 49.4284 389.474Z" fill="#AD9FFF" stroke="#14004F" stroke-width="5"/>
<path d="M330 283.5L354.5 337L290 339L286 312L284.5 295L282 290L273.5 286.5C270.667 283 265 275.5 265 273.5C265 271.5 263.667 263 263 259L269.5 246C272.333 243.5 278.5 238.3 280.5 237.5C283 236.5 292 235 294 233.5C295.6 232.3 301.333 233 304 233.5V228C304 220.667 305.287 199.329 305.402 197C305.5 195 305.5 195 305.402 192.197L307 189L308 187.5L310.099 186.169H313.099L314.5 187L315.5 188.5L316 190L316.5 192.5L317.5 206L319.5 226L325.5 251.5L330 271V283.5Z" fill="#FFAE81" stroke="black"/>
<path d="M314.5 281.5L311 282.5H307.5L304.5 281L302 279C301.833 278.333 301.5 276.9 301.5 276.5C301.5 276 303 273 303.5 272.5C303.9 272.1 304.333 270 304.5 269V268.5M302 278C301.6 278 300.333 281.333 300 282.5L299 284.5L297 286.5C296.167 286.5 294.4 286.5 294 286.5C293.6 286.5 292 286.167 291.5 285.5C290.833 285.167 290 283.4 290 283C290 282.5 290 279 290.5 278C290.9 277.2 290.667 271.333 290.5 268.5L291 263.5L294.5 260.5C295.333 259.833 297.2 258.4 298 258C298.8 257.6 301.667 256.167 303 255.5C303.5 255 304.8 253.9 306 253.5C307.2 253.1 308.5 252.333 309 252L309.5 251.5" stroke="black"/>
<path d="M915.962 362.562V577.426L597.018 583L584 362.562C853.976 305.4 917.798 338.745 915.962 362.562Z" fill="#989898" stroke="black"/>
<rect x="579.92" y="386.189" width="141.894" height="273.108" transform="rotate(-47.4142 579.92 386.189)" fill="#FFAE81"/>
<rect x="765" y="546" width="75" height="35" fill="black"/>
<path d="M864.5 423.5L800.5 469L798.5 468L795 465.5C788 462 773.9 454.8 773.5 454C773 453 749 443 744.5 440C740.9 437.6 733 433.333 729.5 431.5C725.167 429.667 716.1 425.8 714.5 425C712.5 424 705 418.5 703 416.5C701 414.5 694.5 411 693.5 410C692.5 409 685 400 684.5 399.5C684 399 673 385.5 672 385C671 384.5 664.5 378.5 663.5 377.5C662.5 376.5 654 372.5 653 372C652 371.5 647.969 369.996 644 369.5C640 369 634.5 369 633 369.5C631.5 370 621 375 620.5 375.5C620 376 615 380.5 614 381C613 381.5 608.5 387 608 387C607.5 387 595 406.5 595 407C595 407.4 595.5 408.833 595.5 409.5L598 412L599.5 413H601.5H603L604.5 412L606.5 411L617 398.5C615.833 405.667 615 414.7 615 415.5C615 416.3 614 422.333 614 423.5L614.5 426L617.5 429L621 428.5L623.5 427.5C624.833 428.333 626.5 426.5 629 430.5C629.474 431.258 631 431.5 631.5 431H632.5L633.5 434L635.5 438.5L638.5 440L641.5 439.5H643.5L645 442L648 445.5L653 450L656 451L659 450.5L663 458L671.5 465.5L687 482L720.5 510.5L793.5 570.5C795.5 580.5 833 581.167 850 580.5C900 572.5 903.833 518.5 899.5 492.5L864.5 423.5Z" fill="#FFAE81" stroke="black"/>
<path d="M617.5 397L631.5 383.5M623.5 427L624 415.5C624.333 413.667 625.1 409.8 625.5 409C626 408 628 404.5 628.5 404C628.9 403.6 631 401.5 632 400.5L638.5 393.5M632.5 430.5V426L634.5 420.5L638 415L643 408L644.5 406M643.5 439.5L644.5 434L648 431.5L650.5 428.5" stroke="black"/>
<path d="M558.5 251L736 260.5L742.5 264L751.5 268.5L750 264L742.5 256L705 207L688.5 180L687 169V155.5L666 160.5L555 209.5L558.5 251Z" fill="#FFB800" stroke="black"/>
<path d="M692.5 217C692.5 218.2 692.5 236.167 692.5 245M671.5 200.5V238" stroke="black"/>
<path d="M298.5 244.5L301 253L303 255.5M287.5 247.5L289.5 255C289.667 256.333 290.1 259.1 290.5 259.5C290.9 259.9 291.667 261.667 292 262.5M275 254C275 255.167 275 257.7 275 258.5C275 259.5 276 262 275.5 262.5C275.1 262.9 276.333 265.333 277 266.5C277.167 267.167 277.6 268.8 278 270C278.5 271.5 280.5 273.5 280.5 274C280.5 274.4 282.833 276.833 284 278L288 280.5H290M288 283.5L287.5 287.5L285.5 289.5L282.5 288.5L279 288" stroke="black"/>
<path d="M697.5 108.5C697.1 109.7 695 114.333 694 116.5L688.5 136.5L687 136.8L653.5 143.5L530 119.5L523.5 114C522.5 110.667 520.5 103.3 520.5 100.5V87.5L523.5 69L531.5 51L541.5 39L555.5 25.5C561.333 22.5 573.4 16.5 575 16.5C576.6 16.5 585.667 12.5 590 10.5L606 8.5H619L628.5 14.5L637 22.5L610 25.5H612.5L625.5 24H638.5L649.5 25.5L661.5 29.5C665.333 32.5 673.3 38.6 674.5 39C675.7 39.4 680.667 45.1667 683 48L688.5 57.5L695 73.5C695.833 79.5 697.5 91.7 697.5 92.5C697.5 93.5 698 107 697.5 108.5Z" fill="#FFB800"/>
<path d="M736.5 260.5L745 264L750.5 268L749 264L715.5 222.5C710.833 215.667 701.3 201.8 700.5 201C699.7 200.2 692.167 186.667 688.5 180L687 168.5V155.5C687 147.333 687 130.7 687 129.5C687 128.3 691.667 120.333 694 116.5M694 116.5C695 114.333 697.1 109.7 697.5 108.5C698 107 697.5 93.5 697.5 92.5C697.5 91.7 695.833 79.5 695 73.5L688.5 57.5L683 48C680.667 45.1667 675.7 39.4 674.5 39C673.3 38.6 665.333 32.5 661.5 29.5L649.5 25.5L638.5 24H625.5L612.5 25.5H610L637 22.5L628.5 14.5L619 8.5H606L590 10.5C585.667 12.5 576.6 16.5 575 16.5C573.4 16.5 561.333 22.5 555.5 25.5L541.5 39L531.5 51L523.5 69L520.5 87.5C520.5 90.6667 520.5 97.7 520.5 100.5C520.5 103.3 522.5 110.667 523.5 114L530 119.5L653.5 143.5L688.5 136.5L694 116.5Z" stroke="black"/>
<path d="M659 451C659.8 462.2 742.667 529.667 784 562L803.5 581.5H768.5H767.5H577.5C581.833 576.333 590.8 564.8 592 560L543.5 361.5C542.667 356.833 535.5 345.4 513.5 337H438C457.5 310.167 507 255 549 249L574.5 242C572.333 252.167 571.7 273.2 586.5 276C594.888 278.961 615.84 283.966 633.304 280.637C643.869 278.925 666.4 271.2 672 254V239C697.5 246 752.6 264.5 769 282.5C789.167 299.5 833 341.9 847 375.5L871 419L800 468.5L706.5 420.5L688.5 405C682.833 394.667 665.9 373 643.5 369C621.1 365 601.833 393 595 407.5C595.5 409.5 597.6 413.4 602 413C606.4 412.6 613.5 403.167 616.5 398.5L613.5 425.5C614.5 427.5 617.5 430.9 621.5 428.5C625.5 426.1 628.167 429.5 629 431.5H632C632.667 434.167 634.6 439.6 637 440C639.4 440.4 642.333 440.167 643.5 440C646.167 443.833 652.5 451.5 656 451H659Z" fill="#4526FF"/>
<path d="M573.5 95.5L585 81.5M617.5 67.5L610 81.5M623.5 53L625 75.5M653.5 121L645.5 103.5L643.5 81.5V75.5L645.5 66" stroke="black"/>
<path d="M636.543 297L610 281L667.864 238L696 246L690.16 264.5L679.012 279L665.21 290.5L636.543 297Z" fill="white" stroke="black"/>
<path d="M553 271L548.5 249.5L574 242.5H578.5L621 271L578.5 295L563 285L553 271Z" fill="white" stroke="black"/>
<path d="M669 260.5L672 252V248V243.5C671.167 242.5 669.4 240.1 669 238.5C668.6 236.9 667.5 231.167 667 228.5C666.333 225.5 665 218.9 665 216.5C665 213.5 663.5 208.5 663.5 207C663.5 205.8 663.167 200.5 663 198C662.667 192.667 662.2 181.7 663 180.5C663.8 179.3 662 174 661 171.5L663 169.5H665C666 169.5 672 166.5 673.5 165.5C674.7 164.7 675.333 164.5 675.5 164.5C677.333 162.833 681.2 159.4 682 159C682.8 158.6 685.333 156.5 686.5 155.5L690 151.5L692 147L694.5 143C694.833 141.5 695.5 138 695.5 136C695.5 133.5 696 130 695.5 129C695.1 128.2 693.667 125 693 123.5L689 117C687.5 115.333 684.3 112 683.5 112C682.7 112 679.5 111.667 678 111.5L670.5 110.5L666.5 112C665.667 114.167 664 118.8 664 120C664 121.5 659.5 130.5 659.5 132.5C659.5 134.5 657 139.5 657 140.5C657 141.3 655.667 142.5 655 143H654C652.667 141.833 649.8 139.3 649 138.5L644.5 134C643.7 133.2 641.833 130.333 641 129C639.333 126.833 636 122.4 636 122C636 121.6 633.333 116.5 632 114L629 107.5L627.5 100.5L625.5 91.5L623.5 84V75L620.5 76C618.5 77.5 614.3 80.6 613.5 81C612.7 81.4 610.167 82.5 609 83L604 88.5L596 96L589 102L581.5 107.5L570 110.5L562.5 111.5L560.5 109.5L573 97H568.5L562.5 98.5C559.833 98.8333 554 99.7 552 100.5C550 101.3 542.833 101.833 539.5 102L530 103.5V107.5V115.5V127V138.5V152.5V165.5L531 173L534 182L539.5 192.5L545 199L558.5 214.5L566.5 218.5L575 221L581 222C580.5 225.667 579.5 233.2 579.5 234C579.5 234.8 577.5 238.667 576.5 240.5L574 243.5L573 251C573.667 255.833 575 265.7 575 266.5C575 267.3 580 271.833 582.5 274L599 279C603.833 279.333 613.9 280.2 615.5 281C617.1 281.8 625.5 280.667 629.5 280C633.167 279.5 640.7 278.6 641.5 279C642.3 279.4 651.5 273.833 656 271C658.167 269.5 662.7 266.3 663.5 265.5C664.3 264.7 667.5 261.833 669 260.5Z" fill="#FFAE81" stroke="black"/>
<path d="M568.5 181C571 181 575.5 183 578.5 183C579.5 183 585.5 183 586 183C586.4 183 590.667 180.5 592.5 179.5L597 177L598.5 174.5M665 140C667.333 134.333 674.6 125.9 685 137.5" stroke="black"/>
<path d="M590.5 231L580.5 233.5H579.5V232C579.5 231.6 580.167 226.833 580.5 224.5L581.5 221.5L584.5 222L591 220.5L600.5 217.5L612.5 213L618.5 210L625.5 206L627.5 203L631.5 198L635 196V198L629 206L617 215.5L604.5 225.5L590.5 231Z" fill="#282828"/>
<path d="M581.5 222L582 221.5H586C586.833 221.167 588.8 220.5 590 220.5C591.5 220.5 594.5 220 596 219.5C597.5 219 599.5 218 600 218C600.5 218 603.5 216.5 604.5 216.5C605.3 216.5 608.167 215.167 609.5 214.5L614 212.5C614.5 212.167 616.1 212.3 616.5 211.5C617 210.5 620.5 208.5 621.5 208.5C622.5 208.5 623.5 206.5 625.5 205.5C627.1 204.7 627.667 202.167 629 201.5L631.5 198.5C632.5 197.833 634.6 196.4 635 196C635.4 195.6 637.5 192.5 638.5 191C638.833 190.333 639.7 188.8 640.5 188C641.5 187 642.5 185 643 184.5C643.5 184 644.5 183 645 182.5C645.5 182 646.5 180 646.5 179.5C646.5 179.1 647.5 177.333 648 176.5L650 174L650.5 172.5C651 172.333 652.2 172 653 172C653.8 172 656.333 172 657.5 172H659.5L661 171.5" stroke="black"/>
<ellipse cx="551" cy="136.5" rx="5" ry="6.5" fill="black"/>
<path d="M573.5 167.5L568 163.5L571 148L573.5 131" stroke="black"/>
<path d="M540 120C541.833 119.333 545.7 118 546.5 118C547.3 118 550.5 118 552 118L558.5 119L563 120.5L564.5 121.5M613.5 122.5C613.1 122.5 610.333 121.167 609 120.5C607.333 120.333 603.8 120 603 120C602 120 596 120 595.5 120C595.1 120 590.333 120 588 120L585.5 121" stroke="black"/>
<ellipse cx="600" cy="138.5" rx="5" ry="6.5" fill="black"/>
<path d="M572.5 136C572.5 150.653 561.066 162.5 547 162.5C532.934 162.5 521.5 150.653 521.5 136C521.5 121.347 532.934 109.5 547 109.5C561.066 109.5 572.5 121.347 572.5 136Z" stroke="black"/>
<path d="M633.5 138C633.5 152.653 622.066 164.5 608 164.5C593.934 164.5 582.5 152.653 582.5 138C582.5 123.347 593.934 111.5 608 111.5C622.066 111.5 633.5 123.347 633.5 138Z" stroke="black"/>
<path d="M582 136.5H572.5" stroke="black"/>
<path d="M591 562.5L590 564.5L201.5 354.5L206.5 347.5L215 341L222.5 338H398.5H452H491.5H514C515.2 338 520.5 339.333 523 340L532.5 347C535.167 349.333 540.5 354.2 540.5 355C540.5 356 543.5 361.5 544 362.5C544.4 363.3 575.833 493.833 591.5 559L592 560L591 562.5Z" fill="#6532F5" stroke="black"/>
<path d="M537.5 365C556 436 593.1 578.7 593.5 581.5H255L204.5 382L199.5 362L202 354.5L212 345L512 342.5L528.5 352L537.5 365Z" fill="#636363" stroke="black"/>
<path d="M392.275 452.792C392.657 464.276 382.763 473.924 370.175 474.343C357.588 474.761 347.074 465.792 346.692 454.309C346.31 442.825 356.204 433.177 368.792 432.758C381.379 432.339 391.893 441.309 392.275 452.792Z" fill="#080020"/>
<path fill-rule="evenodd" clip-rule="evenodd" d="M391.228 455.603L369.205 441.764L348.151 457.035L391.228 455.603ZM385.307 455.799L369.286 444.19L354.072 456.838L385.307 455.799Z" fill="white"/>
<path fill-rule="evenodd" clip-rule="evenodd" d="M378.745 451.841C378.745 451.849 378.745 451.857 378.745 451.865C378.745 451.871 378.745 451.877 378.744 451.884C378.744 451.891 378.743 451.899 378.742 451.907L378.747 451.907L378.818 454.019L374.719 454.155C374.581 453.026 372.453 452.191 369.879 452.277C367.304 452.363 365.236 453.337 365.173 454.473L365.169 454.473L365.237 456.51L378.885 456.056L378.935 457.554L378.923 457.554L379.101 462.629L379.085 462.63C379.097 462.666 379.103 462.703 379.104 462.74C379.141 463.786 375.051 465.016 369.966 465.188C364.882 465.361 360.729 464.411 360.693 463.365C360.691 463.328 360.695 463.291 360.704 463.254L360.689 463.254L360.613 461.081L365.384 460.923L365.39 461.092L365.393 461.092C365.531 462.221 367.66 463.056 370.234 462.97C372.808 462.885 374.877 461.91 374.94 460.775L374.943 460.775L374.87 458.568L360.542 459.045L360.511 458.167L360.51 458.167L360.322 452.52L360.328 452.52C360.323 452.498 360.321 452.476 360.32 452.454C360.285 451.402 364.376 450.251 369.464 450.082C374.552 449.913 378.71 450.79 378.745 451.841ZM360.542 459.045L360.613 461.081L360.607 461.082L360.539 459.045L360.542 459.045Z" fill="white"/>
<path d="M743.893 409.329L745.86 440.908L759.69 447.961L743.893 409.329Z" fill="black"/>
<ellipse cx="605" cy="308.5" rx="12" ry="11.5" fill="white"/>
<path d="M437.415 161.763L371.293 194.949L298.46 171.839L284.334 79.2045L357.118 101.991L423.289 69.1276L437.415 161.763Z" fill="#2D2D2D"/>
<path d="M375.673 181.904L426.573 157.001L415.499 84.3775L363.117 109.388L375.673 181.904Z" fill="white"/>
<path d="M352.84 110.786L364.383 184.028L306.146 165.734L295.072 93.1108L352.84 110.786Z" fill="white"/>
<path d="M381.888 156.325L383.414 166.331L412.941 151.136L411.465 141.453L381.888 156.325Z" fill="#2D2D2D"/>
<path d="M378.886 136.636L380.313 145.997L410.038 132.093L408.413 121.441L378.886 136.636Z" fill="#2D2D2D"/>
<path d="M375.736 115.979L377.262 125.985L406.937 111.758L405.362 101.43L375.736 115.979Z" fill="#2D2D2D"/>
<path d="M310.916 118.395L309.39 108.389L342.855 119.016L344.332 128.699L310.916 118.395Z" fill="#2D2D2D"/>
<path d="M313.918 138.084L312.491 128.724L345.759 138.06L347.384 148.711L313.918 138.084Z" fill="#2D2D2D"/>
<path d="M317.069 158.742L315.543 148.736L348.86 158.394L350.435 168.723L317.069 158.742Z" fill="#2D2D2D"/>
<path d="M34 404.5L29 464.5L26 515H49V450C47.5 435.333 44.6 405.4 45 403C45.4 400.6 41.1667 377.333 39 366L34 404.5Z" fill="#00F37F" stroke="black"/>
<path d="M10.5 478C10.5 487.5 15.5 514 16 516H35.5C34.3333 507.333 31.1 484.3 27.5 461.5C23.9 438.7 13.3333 417.667 8.5 410C9.16667 429.5 10.5 470.4 10.5 478Z" fill="#00F37F" stroke="black"/>
<path d="M64 476.783C64 486.462 59 513.462 58.5 515.5H39C40.1667 506.67 43.4 483.202 47 459.972C50.6 436.742 61.1667 415.311 66 407.5C65.3333 427.368 64 469.04 64 476.783Z" fill="#00F37F" stroke="black"/>
<mask id="path-38-inside-1_66_137" fill="white">
<path fill-rule="evenodd" clip-rule="evenodd" d="M75 515H0V573.159V576.364V576.5C0 579.814 2.68629 582.5 6 582.5H69C72.3137 582.5 75 579.814 75 576.5V576.364V573.159V515Z"/>
</mask>
<path fill-rule="evenodd" clip-rule="evenodd" d="M75 515H0V573.159V576.364V576.5C0 579.814 2.68629 582.5 6 582.5H69C72.3137 582.5 75 579.814 75 576.5V576.364V573.159V515Z" fill="#F0F0F0"/>
<path d="M0 515V514H-1V515H0ZM75 515H76V514H75V515ZM0 516H75V514H0V516ZM1 573.159V515H-1V573.159H1ZM1 576.364V573.159H-1V576.364H1ZM1 576.5V576.364H-1V576.5H1ZM6 581.5C3.23858 581.5 1 579.261 1 576.5H-1C-1 580.366 2.134 583.5 6 583.5V581.5ZM69 581.5H6V583.5H69V581.5ZM74 576.5C74 579.261 71.7614 581.5 69 581.5V583.5C72.866 583.5 76 580.366 76 576.5H74ZM74 576.364V576.5H76V576.364H74ZM74 573.159V576.364H76V573.159H74ZM74 515V573.159H76V515H74Z" fill="black" mask="url(#path-38-inside-1_66_137)"/>
<rect x="891" y="545" width="146" height="7" rx="2" fill="#FF5151"/>
<rect x="891" y="571" width="156" height="7" rx="1" fill="#FF5656"/>
<rect x="1035" y="545" width="12" height="33" rx="1" fill="#FF5050"/>
<rect x="895.5" y="552.5" width="142" height="18" fill="white" stroke="black"/>
<rect x="901" y="513" width="146" height="7" rx="2" fill="#3204B5"/>
<rect x="901" y="539" width="156" height="7" rx="1" fill="#3204B5"/>
<rect x="1045" y="513" width="12" height="33" rx="1" fill="#1C006B"/>
<rect x="905.5" y="520.5" width="142" height="18" fill="white" stroke="black"/>
<path d="M851.5 135.5C851.5 154.817 835.395 170.5 815.5 170.5C795.605 170.5 779.5 154.817 779.5 135.5C779.5 116.183 795.605 100.5 815.5 100.5C835.395 100.5 851.5 116.183 851.5 135.5Z" fill="#00F37F" stroke="black"/>
<path d="M854.093 582.827H815.527L812.258 580.579L806.049 576.924C805.068 576.362 802.846 575.013 801.8 574.113C800.754 573.214 798.096 570.553 796.897 569.335C796.026 567.367 794.283 563.207 794.283 562.308C794.283 561.183 791.668 556.686 791.668 555.843V551.345V546.285V542.069L792.975 538.415L794.283 534.48L795.59 531.669L796.897 527.171H795.59L805.068 513.679H864.225L872.396 527.171L870.435 528.577C871.088 529.607 872.396 531.837 872.396 532.512C872.396 533.187 874.575 538.415 875.664 540.945V548.815C875.773 550.877 875.925 555.168 875.664 555.843C875.337 556.686 874.357 561.464 874.03 562.308C873.703 563.151 870.762 567.929 870.435 568.492C870.173 568.941 867.275 571.865 865.859 573.27L861.283 576.924C860.303 577.861 858.08 579.904 857.035 580.579C855.989 581.253 854.638 582.359 854.093 582.827Z" fill="#AE460C" stroke="black"/>
<path d="M870.055 529.178H819.422C815.095 528.837 806.18 528.156 805.141 528.156C804.102 528.156 799.082 527.247 796.702 526.793" stroke="black"/>
<path d="M865.348 449.64L839.851 514.593L846.716 514.871L871.232 451.305L883 435.483L882.013 433.585C880.413 432.809 875.375 433.391 872.867 433.817L865.348 449.64Z" fill="#B8B8B8"/>
<path d="M882.346 433.817C882.263 433.729 882.151 433.652 882.013 433.585M882.013 433.585C880.413 432.809 875.375 433.391 872.867 433.817L865.348 449.64L839.851 514.593L846.716 514.871L871.232 451.305L883 435.483L882.013 433.585Z" stroke="black" stroke-width="2"/>
<path d="M805.165 514.241L796.702 526.332L805.165 528.019L869.934 528.582L872.213 526.894L864.076 513.679L805.165 514.241Z" fill="black" stroke="black"/>
<path d="M785.196 368.376V382.258L727.664 382.535V367.543C728.181 362.434 730.681 356.16 731.866 353.661H733.159V350.607H736.068V349.774V348.386H732.189L733.482 342H779.055L780.025 343.111L780.348 348.386H775.5V349.774H779.378V353.939C781.641 353.106 783.257 356.993 783.257 357.548V361.99L785.196 368.376Z" fill="black" stroke="black"/>
<path d="M717.563 587L714 583.901L714.324 409.797C716.375 406.98 720.478 401.233 720.478 400.782L721.773 395.147L721.126 385.005C721.644 383.653 724.365 382 725.66 381.343H739.587H785.904C788.236 381.343 790.115 383.785 790.762 385.005V395.993C793.094 396.894 792.598 399.937 792.058 401.345L798.86 411.487V583.901L796.916 587H717.563Z" fill="#78D97C" stroke="black"/>
<path d="M714 564.348H798.282L799.579 583.644L796.985 587H718.214L714 584.483V564.348Z" fill="black" stroke="black"/>
<path d="M783.242 385.928L780.666 383.131H766.498V384.25C766.927 385.555 767.786 388.389 767.786 389.284V397.673L768.752 403.546L769.718 408.3V564.348H788.073V410.258L783.242 403.546V397.673V385.928Z" fill="white"/>
<path d="M729.821 348.855H777.645H783.398L783.038 342.894L781.6 342H731.26L729.821 348.855Z" fill="#00F37F" stroke="black"/>
<path d="M745.643 364.74V380.471H752.129V374.952V361.429V354.253H747.913L746.94 355.633L746.616 358.669V362.533C746.616 363.195 745.967 364.28 745.643 364.74Z" fill="#E9E9E9"/>
<path d="M747.913 350.942V353.149L754.399 352.873V350.942H747.913Z" fill="#E9E9E9"/>
<path d="M762.832 353.425H775.156C775.264 352.598 775.415 350.942 775.156 350.942H770.94H762.832V353.425Z" fill="#E9E9E9"/>
<path d="M766.075 363.085C766.334 363.526 766.183 375.044 766.075 380.747H778.723V367.224C778.723 366.672 778.075 364.188 778.075 363.637C778.075 363.085 777.102 360.049 777.102 359.497C777.102 359.055 776.021 355.633 775.48 353.977H764.778V357.565L765.751 360.049C765.751 360.877 765.815 362.643 766.075 363.085Z" fill="#E9E9E9"/>
<path d="M745.643 364.74V380.471H752.129V374.952V361.429V354.253H747.913L746.94 355.633L746.616 358.669V362.533C746.616 363.195 745.967 364.28 745.643 364.74Z" stroke="black"/>
<path d="M747.913 350.942V353.149L754.399 352.873V350.942H747.913Z" stroke="black"/>
<path d="M762.832 353.425H775.156C775.264 352.598 775.415 350.942 775.156 350.942H770.94H762.832V353.425Z" stroke="black"/>
<path d="M766.075 363.085C766.334 363.526 766.183 375.044 766.075 380.747H778.723V367.224C778.723 366.672 778.075 364.188 778.075 363.637C778.075 363.085 777.102 360.049 777.102 359.497C777.102 359.055 776.021 355.633 775.48 353.977H764.778V357.565L765.751 360.049C765.751 360.877 765.815 362.643 766.075 363.085Z" stroke="black"/>
</svg>
