<svg width="200" height="180" viewBox="0 0 200 180" fill="none" xmlns="http://www.w3.org/2000/svg">
<path d="M200 90C200 139.706 155.228 180 100 180C44.7715 180 0 139.706 0 90C0 40.2944 44.7715 0 100 0C155.228 0 200 40.2944 200 90Z" fill="#080020"/>
<path fill-rule="evenodd" clip-rule="evenodd" d="M195 102L100.5 39L6 102H195ZM169.024 102L100.5 49.5L31.9763 102H169.024Z" fill="white"/>
<path fill-rule="evenodd" clip-rule="evenodd" d="M140.84 83.9418C140.84 83.976 140.839 84.0101 140.837 84.0442C140.836 84.0713 140.834 84.0983 140.831 84.1252C140.827 84.1589 140.822 84.1925 140.817 84.2261H140.84V93.3673H122.859C122.419 88.4656 113.212 84.551 101.917 84.551C90.6229 84.551 81.4151 88.4656 80.9751 93.3673H80.9586V102.184H140.84V108.669H140.788L140.826 130.637L140.757 130.637C140.803 130.797 140.826 130.957 140.827 131.119C140.834 135.644 122.728 140.373 100.42 140.388C78.1121 140.403 60.0495 135.698 60.0418 131.173C60.0416 131.011 60.0644 130.851 60.1097 130.691L60.041 130.691L60.025 121.286H80.9586V122.02H80.9751C81.4151 126.922 90.6229 130.837 101.917 130.837C113.212 130.837 122.419 126.922 122.859 122.02H122.876V112.469H60.0101L60.0036 108.669H60V84.2261H60.0236C60.0079 84.1317 60 84.037 60 83.9418C60 79.3896 78.0967 75 100.42 75C122.744 75 140.84 79.3896 140.84 83.9418ZM60.0101 112.469L60.025 121.286H60V112.469H60.0101Z" fill="white"/>
</svg>
