<svg width="197" height="110" viewBox="0 0 197 110" fill="none" xmlns="http://www.w3.org/2000/svg">
<g filter="url(#filter0_d_22_221)">
<path fill-rule="evenodd" clip-rule="evenodd" d="M193 63L98.5 0L4 63H193ZM167.024 63L98.5 10.5L29.9763 63H167.024Z" fill="url(#paint0_linear_22_221)"/>
<path fill-rule="evenodd" clip-rule="evenodd" d="M138.84 44.9418C138.84 44.976 138.839 45.0101 138.837 45.0442C138.836 45.0713 138.834 45.0983 138.831 45.1252C138.827 45.1589 138.822 45.1925 138.817 45.2261H138.84V54.3673H120.859C120.419 49.4656 111.212 45.551 99.9172 45.551C88.6229 45.551 79.4151 49.4656 78.9751 54.3673H78.9586V63.1837H138.84V69.6694H138.788L138.826 91.6373L138.757 91.6374C138.803 91.7968 138.826 91.9574 138.827 92.1192C138.834 96.6438 120.728 101.373 98.4202 101.388C76.1121 101.403 58.0495 96.6977 58.0418 92.1731C58.0416 92.0113 58.0644 91.8507 58.1097 91.6912L58.041 91.6912L58.025 82.2857H78.9586V83.0204H78.9751C79.4151 87.9221 88.6229 91.8367 99.9172 91.8367C111.212 91.8367 120.419 87.9221 120.859 83.0204H120.876V73.4694H58.0101L58.0036 69.6694H58V45.2261H58.0236C58.0079 45.1317 58 45.037 58 44.9418C58 40.3896 76.0967 36 98.4202 36C120.744 36 138.84 40.3896 138.84 44.9418ZM58.0101 73.4694L58.025 82.2857H58V73.4694H58.0101Z" fill="url(#paint1_linear_22_221)"/>
</g>
<defs>
<filter id="filter0_d_22_221" x="0" y="0" width="197" height="109.388" filterUnits="userSpaceOnUse" color-interpolation-filters="sRGB">
<feFlood flood-opacity="0" result="BackgroundImageFix"/>
<feColorMatrix in="SourceAlpha" type="matrix" values="0 0 0 0 0 0 0 0 0 0 0 0 0 0 0 0 0 0 127 0" result="hardAlpha"/>
<feOffset dy="4"/>
<feGaussianBlur stdDeviation="2"/>
<feComposite in2="hardAlpha" operator="out"/>
<feColorMatrix type="matrix" values="0 0 0 0 0 0 0 0 0 0 0 0 0 0 0 0 0 0 0.25 0"/>
<feBlend mode="normal" in2="BackgroundImageFix" result="effect1_dropShadow_22_221"/>
<feBlend mode="normal" in="SourceGraphic" in2="effect1_dropShadow_22_221" result="shape"/>
</filter>
<linearGradient id="paint0_linear_22_221" x1="98.5" y1="0" x2="99.5" y2="118.5" gradientUnits="userSpaceOnUse">
<stop stop-color="#2700C2" stop-opacity="0.87"/>
<stop offset="1" stop-color="#FF0000"/>
</linearGradient>
<linearGradient id="paint1_linear_22_221" x1="98.5" y1="0" x2="98.5" y2="101.388" gradientUnits="userSpaceOnUse">
<stop stop-color="#FF0000"/>
<stop offset="1" stop-color="#3300FF"/>
</linearGradient>
</defs>
</svg>
